# xmcd
#
# Track frame offsets: 
#        150
#        32842
#        65537
#        109432
#        137557
#        158987
#
# Disc length: 2693 seconds
#
# Revision: 0
# Processed by: cddbd v1.5.2PL0 Copyright (c) Steve Scherf et al.
# Submitted via: ExactAudioCopy v0.95b4
#
DISCID=520a8306
DTITLE=Big Joe Turner - Everyday I Have The Blues
DYEAR=2003
DGENRE=Blues
TTITLE0=The Night Time Is The Right Time
TTITLE1=Shoo Shoo Boogie
TTITLE2=Everyday I Have The Blues
TTITLE3=Early One Morning
TTITLE4=Hide and Go Seek
TTITLE5=The Things I Used To Do
EXTD=
EXTT0=
EXTT1=
EXTT2=
EXTT3=
EXTT4=
EXTT5=
PLAYORDER=
